<mxfile host="Electron" modified="2023-09-16T07:25:10.837Z" agent="Mozilla/5.0 (Macintosh; Intel Mac OS X 10_15_7) AppleWebKit/537.36 (KHTML, like Gecko) draw.io/21.7.5 Chrome/114.0.5735.289 Electron/25.8.1 Safari/537.36" etag="EWqixiDZuyuLju-8jUhi" version="21.7.5" type="device">
  <diagram name="ページ1" id="0WTKykYsJb3PjLt7dPl4">
    <mxGraphModel dx="853" dy="706" grid="1" gridSize="10" guides="1" tooltips="1" connect="1" arrows="1" fold="1" page="1" pageScale="1" pageWidth="827" pageHeight="1169" math="0" shadow="0">
      <root>
        <mxCell id="0" />
        <mxCell id="1" parent="0" />
        <mxCell id="zGI-7NmDWnm9bNMIAx9V-5" value="" style="rounded=0;whiteSpace=wrap;html=1;fillColor=#dae8fc;strokeColor=#6c8ebf;" vertex="1" parent="1">
          <mxGeometry x="320" y="40" width="720" height="490" as="geometry" />
        </mxCell>
        <mxCell id="zGI-7NmDWnm9bNMIAx9V-19" value="" style="rounded=0;whiteSpace=wrap;html=1;fillColor=#e1d5e7;strokeColor=#9673a6;" vertex="1" parent="1">
          <mxGeometry x="380" y="90" width="160" height="410" as="geometry" />
        </mxCell>
        <mxCell id="zGI-7NmDWnm9bNMIAx9V-1" value="" style="rounded=0;whiteSpace=wrap;html=1;" vertex="1" parent="1">
          <mxGeometry x="80" y="160" width="160" height="240" as="geometry" />
        </mxCell>
        <mxCell id="zGI-7NmDWnm9bNMIAx9V-2" value="FragmentContainerView" style="rounded=1;whiteSpace=wrap;html=1;arcSize=6;fillColor=#dae8fc;strokeColor=#6c8ebf;" vertex="1" parent="1">
          <mxGeometry x="90" y="170" width="140" height="180" as="geometry" />
        </mxCell>
        <mxCell id="zGI-7NmDWnm9bNMIAx9V-3" value="BottomNavigationView" style="rounded=1;whiteSpace=wrap;html=1;fillColor=#e1d5e7;strokeColor=#9673a6;" vertex="1" parent="1">
          <mxGeometry x="90" y="360" width="140" height="30" as="geometry" />
        </mxCell>
        <mxCell id="zGI-7NmDWnm9bNMIAx9V-4" value="MainActivity" style="text;html=1;strokeColor=none;fillColor=none;align=center;verticalAlign=middle;whiteSpace=wrap;rounded=0;" vertex="1" parent="1">
          <mxGeometry x="128" y="133" width="60" height="30" as="geometry" />
        </mxCell>
        <mxCell id="zGI-7NmDWnm9bNMIAx9V-6" value="" style="endArrow=diamondThin;endFill=1;endSize=24;html=1;rounded=0;entryX=1;entryY=0.5;entryDx=0;entryDy=0;" edge="1" parent="1" target="zGI-7NmDWnm9bNMIAx9V-2">
          <mxGeometry width="160" relative="1" as="geometry">
            <mxPoint x="320" y="260" as="sourcePoint" />
            <mxPoint x="270" y="470" as="targetPoint" />
          </mxGeometry>
        </mxCell>
        <mxCell id="zGI-7NmDWnm9bNMIAx9V-7" value="startDestination" style="html=1;verticalAlign=bottom;endArrow=block;curved=0;rounded=0;" edge="1" parent="1">
          <mxGeometry width="80" relative="1" as="geometry">
            <mxPoint x="320" y="154" as="sourcePoint" />
            <mxPoint x="400" y="154" as="targetPoint" />
          </mxGeometry>
        </mxCell>
        <mxCell id="zGI-7NmDWnm9bNMIAx9V-34" style="edgeStyle=orthogonalEdgeStyle;rounded=0;orthogonalLoop=1;jettySize=auto;html=1;entryX=0;entryY=0.25;entryDx=0;entryDy=0;exitX=0.5;exitY=1;exitDx=0;exitDy=0;" edge="1" parent="1" source="zGI-7NmDWnm9bNMIAx9V-8" target="zGI-7NmDWnm9bNMIAx9V-30">
          <mxGeometry relative="1" as="geometry">
            <Array as="points">
              <mxPoint x="460" y="270" />
            </Array>
          </mxGeometry>
        </mxCell>
        <mxCell id="zGI-7NmDWnm9bNMIAx9V-37" value="action_to_setting" style="edgeLabel;html=1;align=center;verticalAlign=middle;resizable=0;points=[];" vertex="1" connectable="0" parent="zGI-7NmDWnm9bNMIAx9V-34">
          <mxGeometry x="0.3989" y="4" relative="1" as="geometry">
            <mxPoint x="-12" y="-4" as="offset" />
          </mxGeometry>
        </mxCell>
        <mxCell id="zGI-7NmDWnm9bNMIAx9V-8" value="" style="rounded=0;whiteSpace=wrap;html=1;fillColor=#fff2cc;strokeColor=#d6b656;" vertex="1" parent="1">
          <mxGeometry x="400" y="134" width="120" height="120" as="geometry" />
        </mxCell>
        <mxCell id="zGI-7NmDWnm9bNMIAx9V-9" value="root.xml" style="text;html=1;strokeColor=none;fillColor=none;align=center;verticalAlign=middle;whiteSpace=wrap;rounded=0;" vertex="1" parent="1">
          <mxGeometry x="530" y="10" width="60" height="30" as="geometry" />
        </mxCell>
        <mxCell id="zGI-7NmDWnm9bNMIAx9V-11" value="GitRepositoryFragment" style="text;html=1;strokeColor=none;fillColor=none;align=center;verticalAlign=middle;whiteSpace=wrap;rounded=0;" vertex="1" parent="1">
          <mxGeometry x="430" y="107" width="60" height="30" as="geometry" />
        </mxCell>
        <mxCell id="zGI-7NmDWnm9bNMIAx9V-12" value="AppBarLayout" style="rounded=1;whiteSpace=wrap;html=1;" vertex="1" parent="1">
          <mxGeometry x="410" y="144" width="100" height="30" as="geometry" />
        </mxCell>
        <mxCell id="zGI-7NmDWnm9bNMIAx9V-13" value="RecyclerView" style="rounded=1;whiteSpace=wrap;html=1;" vertex="1" parent="1">
          <mxGeometry x="410" y="184" width="100" height="60" as="geometry" />
        </mxCell>
        <mxCell id="zGI-7NmDWnm9bNMIAx9V-14" value="" style="rounded=0;whiteSpace=wrap;html=1;fillColor=#fff2cc;strokeColor=#d6b656;" vertex="1" parent="1">
          <mxGeometry x="590" y="134" width="120" height="120" as="geometry" />
        </mxCell>
        <mxCell id="zGI-7NmDWnm9bNMIAx9V-15" value="ToolBar" style="rounded=1;whiteSpace=wrap;html=1;" vertex="1" parent="1">
          <mxGeometry x="600" y="144" width="100" height="30" as="geometry" />
        </mxCell>
        <mxCell id="zGI-7NmDWnm9bNMIAx9V-16" value="WebView" style="rounded=1;whiteSpace=wrap;html=1;" vertex="1" parent="1">
          <mxGeometry x="600" y="184" width="100" height="60" as="geometry" />
        </mxCell>
        <mxCell id="zGI-7NmDWnm9bNMIAx9V-17" value="action_to_git_repo_detail" style="html=1;verticalAlign=bottom;endArrow=block;curved=0;rounded=0;fontSize=8;" edge="1" parent="1">
          <mxGeometry width="80" relative="1" as="geometry">
            <mxPoint x="520" y="193.5" as="sourcePoint" />
            <mxPoint x="590" y="194" as="targetPoint" />
          </mxGeometry>
        </mxCell>
        <mxCell id="zGI-7NmDWnm9bNMIAx9V-18" value="GitRepositoryDetailFragment" style="text;html=1;strokeColor=none;fillColor=none;align=center;verticalAlign=middle;whiteSpace=wrap;rounded=0;" vertex="1" parent="1">
          <mxGeometry x="620" y="107" width="60" height="30" as="geometry" />
        </mxCell>
        <mxCell id="zGI-7NmDWnm9bNMIAx9V-20" value="" style="endArrow=diamondThin;endFill=1;endSize=24;html=1;rounded=0;entryX=1;entryY=0.5;entryDx=0;entryDy=0;" edge="1" parent="1">
          <mxGeometry width="160" relative="1" as="geometry">
            <mxPoint x="380" y="375" as="sourcePoint" />
            <mxPoint x="230" y="374.5" as="targetPoint" />
          </mxGeometry>
        </mxCell>
        <mxCell id="zGI-7NmDWnm9bNMIAx9V-21" value="" style="rounded=0;whiteSpace=wrap;html=1;fillColor=#fff2cc;strokeColor=#d6b656;" vertex="1" parent="1">
          <mxGeometry x="400" y="347" width="120" height="120" as="geometry" />
        </mxCell>
        <mxCell id="zGI-7NmDWnm9bNMIAx9V-22" value="QiitaFragment" style="text;html=1;strokeColor=none;fillColor=none;align=center;verticalAlign=middle;whiteSpace=wrap;rounded=0;" vertex="1" parent="1">
          <mxGeometry x="427" y="320" width="60" height="30" as="geometry" />
        </mxCell>
        <mxCell id="zGI-7NmDWnm9bNMIAx9V-23" value="AppBarLayout" style="rounded=1;whiteSpace=wrap;html=1;" vertex="1" parent="1">
          <mxGeometry x="410" y="357" width="100" height="30" as="geometry" />
        </mxCell>
        <mxCell id="zGI-7NmDWnm9bNMIAx9V-24" value="RecyclerView" style="rounded=1;whiteSpace=wrap;html=1;" vertex="1" parent="1">
          <mxGeometry x="410" y="397" width="100" height="60" as="geometry" />
        </mxCell>
        <mxCell id="zGI-7NmDWnm9bNMIAx9V-25" value="action_to_git_repo_detail" style="html=1;verticalAlign=bottom;endArrow=block;curved=0;rounded=0;fontSize=8;entryX=0;entryY=0.5;entryDx=0;entryDy=0;exitX=1;exitY=0.5;exitDx=0;exitDy=0;" edge="1" parent="1" source="zGI-7NmDWnm9bNMIAx9V-21" target="zGI-7NmDWnm9bNMIAx9V-26">
          <mxGeometry width="80" relative="1" as="geometry">
            <mxPoint x="530" y="204" as="sourcePoint" />
            <mxPoint x="600" y="204" as="targetPoint" />
          </mxGeometry>
        </mxCell>
        <mxCell id="zGI-7NmDWnm9bNMIAx9V-26" value="" style="rounded=0;whiteSpace=wrap;html=1;fillColor=#fff2cc;strokeColor=#d6b656;" vertex="1" parent="1">
          <mxGeometry x="600" y="347" width="120" height="120" as="geometry" />
        </mxCell>
        <mxCell id="zGI-7NmDWnm9bNMIAx9V-27" value="ToolBar" style="rounded=1;whiteSpace=wrap;html=1;" vertex="1" parent="1">
          <mxGeometry x="610" y="357" width="100" height="30" as="geometry" />
        </mxCell>
        <mxCell id="zGI-7NmDWnm9bNMIAx9V-28" value="WebView" style="rounded=1;whiteSpace=wrap;html=1;" vertex="1" parent="1">
          <mxGeometry x="610" y="397" width="100" height="60" as="geometry" />
        </mxCell>
        <mxCell id="zGI-7NmDWnm9bNMIAx9V-29" value="QittaDetailFragment" style="text;html=1;strokeColor=none;fillColor=none;align=center;verticalAlign=middle;whiteSpace=wrap;rounded=0;" vertex="1" parent="1">
          <mxGeometry x="630" y="320" width="60" height="30" as="geometry" />
        </mxCell>
        <mxCell id="zGI-7NmDWnm9bNMIAx9V-30" value="" style="rounded=0;whiteSpace=wrap;html=1;fillColor=#fff2cc;strokeColor=#d6b656;" vertex="1" parent="1">
          <mxGeometry x="820" y="240" width="120" height="120" as="geometry" />
        </mxCell>
        <mxCell id="zGI-7NmDWnm9bNMIAx9V-31" value="SettingFragment" style="text;html=1;strokeColor=none;fillColor=none;align=center;verticalAlign=middle;whiteSpace=wrap;rounded=0;" vertex="1" parent="1">
          <mxGeometry x="850" y="213" width="60" height="30" as="geometry" />
        </mxCell>
        <mxCell id="zGI-7NmDWnm9bNMIAx9V-32" value="ToolBar" style="rounded=1;whiteSpace=wrap;html=1;" vertex="1" parent="1">
          <mxGeometry x="830" y="250" width="100" height="30" as="geometry" />
        </mxCell>
        <mxCell id="zGI-7NmDWnm9bNMIAx9V-33" value="ConstraintLayout" style="rounded=1;whiteSpace=wrap;html=1;" vertex="1" parent="1">
          <mxGeometry x="830" y="290" width="100" height="60" as="geometry" />
        </mxCell>
      </root>
    </mxGraphModel>
  </diagram>
</mxfile>
